<svg xmlns="http://www.w3.org/2000/svg" xmlns:xlink="http://www.w3.org/1999/xlink" width="137.351" height="31.248" viewBox="0 0 137.351 31.248">
  <defs>
    <clipPath id="clip-path">
      <rect id="Rectangle_134" data-name="Rectangle 134" width="137.351" height="31.248" fill="none"/>
    </clipPath>
  </defs>
  <g id="Group_90482" data-name="Group 90482" transform="translate(0 0)">
    <g id="Group_90481" data-name="Group 90481" transform="translate(0 0)" clip-path="url(#clip-path)">
      <path id="Path_13978" data-name="Path 13978" d="M16.944,24.1a6.982,6.982,0,0,0,4.038-6.912A6.692,6.692,0,0,0,16.4,11.3L8.75,8.58A3.554,3.554,0,0,1,6.324,5.164,3.523,3.523,0,0,1,8.735,2.087c4.457-1.763,7.57,2.16,9.4,6.81a2.357,2.357,0,0,0,1.437-.078l-.123-8.1a2.338,2.338,0,0,0-2.537,1.037,13.629,13.629,0,0,0-12.107-.6A6.956,6.956,0,0,0,.655,8.163,7.013,7.013,0,0,0,5.6,14.118l6.626,2.258c1.447.493,3.1,1.938,2.94,3.544-.246,2.477-2.752,3.694-5.134,3.557C3.513,23.1,2.191,16.776,1.3,16.17c-.289-.2-1.317-.06-1.295.258.258,2.842-.228,5.547.491,8.314.173.629,2.233-.193,2.272-1.116,4.468,2.283,9.616,2.789,14.18.477" transform="translate(0 0)"/>
      <path id="Path_13979" data-name="Path 13979" d="M314.457,26.115l.682-8.125c-2.651-.074-2.255,4.721-7.389,4.688l-8.032-.052,4.915-6.087L315.218,2.073,293.012,1.94l-.674,7.25c2.214,1.043,2.1-3.619,6.511-3.657l7.944-.069L300.824,12,290.541,26.046Z" transform="translate(-177.868 -1.188)"/>
      <path id="Path_13980" data-name="Path 13980" d="M121.972,30.772l.135-14.278c.012-1.3,3.931-.435,2.631-2.131l-10.525.037c-.481,0-.5.947-.162,1.024l.853.2c.551.126,2.007.376,2.006,1.239l-.01,14.67c0,1.165-1.79.868-2.962,1.367-.157.067-.09.808.309.811l10.514.062c1.158-1.834-2.813-.363-2.788-3" transform="translate(-69.681 -8.793)"/>
      <path id="Path_13981" data-name="Path 13981" d="M215.444,31.145l.089-14.622c.008-1.281,3.507-.378,2.933-2.129l-11.019-.012c-.586,1.659,2.9,1.14,2.9,2.352l.027,14.91c0,1.066-2.225.8-2.791,1.248-.132.105.007.814.4.816l10.491.072c.581-1.839-3.043-.605-3.031-2.634" transform="translate(-126.957 -8.805)"/>
      <path id="Path_13982" data-name="Path 13982" d="M251.895,33.51V16.628c2.947-.47,5.194.417,5.93,3.012.151.532,1.208.422,1.2-.033l-.066-5.217-19.288-.009-.049,5.226c0,.378.743.562,1.021.251.936-1.047.66-3.783,6.2-3.288l.011,17.065a12,12,0,0,0,5.039-.123" transform="translate(-146.696 -8.803)"/>
      <path id="Path_13983" data-name="Path 13983" d="M173.9,38.59,162.645,24.1a6.532,6.532,0,0,0,4.1-2.4,4.4,4.4,0,0,0,.216-4.948c-1.054-1.6-3.192-2.256-5.11-2.277L149.1,14.342c-.431,0-.559.514-.454.741.325.7,2.885.589,2.886,1.614l.016,14.943c0,.992-2.314.779-2.821,1.229-.126.112.007.807.4.809l10.209.072c.582-1.657-2.625-.946-2.62-2.316l.022-6.343c0-.237.813.159.917.284l8.786,10.546c2.041.9,5.079.812,6.607,3.2.168.262,1.111-.206.859-.532M160.778,22.73c-1.239.971-2.923.531-4.144.575l.035-7.39c1.443.137,3.158-.252,4.344.731,1.6,1.327,1.5,4.726-.235,6.085" transform="translate(-90.977 -8.78)"/>
      <path id="Path_13984" data-name="Path 13984" d="M77.955,16.385a6.863,6.863,0,0,0-5.1-1.948l-12.594-.121c-.609,1.637,2.781,1.156,2.789,2.565l.11,19.112c2.943.824,3.31,3.3,4.157,3.947.206.158.762.054.763-.284L68.131,25.4c4.636.193,9.427-.758,10.467-4.034.59-1.856.553-3.64-.643-4.979m-5.613,6.58c-1.136,1.065-2.679.727-4.221.966l-.012-7.693c1.562.026,3.175-.317,4.342.714,1.494,1.32,1.458,4.544-.109,6.013" transform="translate(-36.846 -8.764)"/>
    </g>
  </g>
</svg>
