<svg xmlns="http://www.w3.org/2000/svg" width="104.283" height="77.477" viewBox="0 0 104.283 77.477">
  <path id="one-show" d="M44.556,59.446v4.642a2.244,2.244,0,0,1-2.407,2.424c-.516,0-1.032.017-1.547-.017a2.248,2.248,0,0,1-2.184-2.132c-.034-.361-.017-.722-.017-1.1V55.1a2.357,2.357,0,0,1,2.682-2.682c.413,0,.808-.017,1.221,0a2.192,2.192,0,0,1,2.218,2.27C44.573,56.265,44.556,57.847,44.556,59.446ZM106.8,63.281a2.256,2.256,0,0,0-2.2-2.373,6.446,6.446,0,0,0-1.152,0,2.232,2.232,0,0,0-2.27,2.252q-.077,2.089,0,4.178a2.189,2.189,0,0,0,2.063,2.252,5.754,5.754,0,0,0,1.719-.052,2.136,2.136,0,0,0,1.857-2.2c.017-.688,0-1.376,0-2.063C106.8,64.622,106.816,63.951,106.8,63.281Zm-1.547,3.955c-.017.671-.378.98-1.083,1-.963.034-1.462-.224-1.479-.928-.052-1.341-.052-2.7,0-4.058.017-.722.533-.98,1.53-.928a.941.941,0,0,1,1.014,1.049c.017.636,0,1.29,0,1.926A18.3,18.3,0,0,1,105.251,67.235ZM94.075,69.453h1.53v-3.49h2.751v3.49H99.8V61.062H98.322V64.45H95.554V61.062H94.075ZM30.439,57.417V56.076H27.052V53.91h2.785V52.465H27.052V50.436h3.37V49.078H25.487v8.339Zm57.5,11.245c.86,1.152,2.063,1.1,3.267.877a2.164,2.164,0,0,0,1.805-2.132,2.446,2.446,0,0,0-1.169-2.356c-.6-.361-1.255-.653-1.874-.98-.4-.206-.722-.5-.567-.946a1.326,1.326,0,0,1,.671-.757.917.917,0,0,1,1.152.309c.12.172.258.327.4.516.464-.241.877-.447,1.272-.653a2.208,2.208,0,0,0-1.737-1.582c-1.977-.447-3.456.722-3.3,2.614A2.186,2.186,0,0,0,89,65.327c.619.378,1.29.688,1.926,1.049a.949.949,0,0,1,.533,1.135.99.99,0,0,1-1.014.722A1.249,1.249,0,0,1,89,67.3c-.481.241-.911.464-1.41.7A2.916,2.916,0,0,0,87.937,68.662ZM12.11,49.1v1.376h1.7v6.981h1.53V50.419h1.685V49.1Zm86.178-1.307a3.13,3.13,0,0,1-.98,2.356q-7.428,7.4-14.839,14.839h0l-1.238,1.186H73.15V61.028h6.929V57.641h-.636c-.688.017-1.376,0-2.046,0H73.132V52.758h8.3V49.37H69.47v20.2h8.3c-.172.206-.275.344-.378.464Q63.83,83.63,50.247,97.2a2.715,2.715,0,0,1-2.012.843H22.014c-.911,0-1.2-.292-1.2-1.186V70.5a2.437,2.437,0,0,1,.722-1.805L34.48,55.749a3.342,3.342,0,0,1,.275-.224v8.528a5.353,5.353,0,0,0,5.3,5.777,15.689,15.689,0,0,0,3.594-.086,5.2,5.2,0,0,0,4.591-5.3c.069-3.3.069-6.62,0-9.921a5.4,5.4,0,0,0-5.519-5.451c-.464-.017-.928,0-1.513,0,.241-.258.378-.413.533-.567Q55.121,35.125,68.524,21.7a3.573,3.573,0,0,1,2.734-1.135c8.546.034,17.091.017,25.654.017,1.152,0,1.393.241,1.393,1.41C98.27,30.577,98.27,39.191,98.288,47.788ZM65.171,49.921v-.585H61.629v5.055c0,.258.017.533.017.791.017,2.338,0,4.66,0,7.187l-6.5-13.033H51.9V69.522h3.594V56.747l.327.671h0l.155.309,5.915,11.812h3.284v-.481c0-.034.017-.052.017-.086C65.154,62.644,65.154,56.282,65.171,49.921Zm-41.146-.843H22.478v3.387H19.727V49.078H18.162v8.408H19.71v-.155h0V53.944h2.751v3.542h1.565V49.078Zm91.8,11.95h-1.135l-.241,1.324h0c-.258,1.324-.481,2.631-.739,3.955-.464-1.513-.808-3.009-1.152-4.522l-.138-.774h-.963l-.241,1.118c-.327,1.393-.653,2.8-.963,4.2l-.052.258-.172-.928v-.017c0-.017-.017-.052-.017-.069l-.034-.224c-.241-1.29-.481-2.579-.688-3.869l-.017-.069-.069-.4h-1.651l.069.309h0c.55,2.51,1.083,5.038,1.616,7.548h0l.155.636h1.2l.12-.464v-.017c.327-1.427.7-2.82,1.066-4.23l.189-.791.155.636c.361,1.41.739,2.82,1.066,4.23V68.9l.155.6h1.221l.224-1.049h0c.172-.791.344-1.565.516-2.356.361-1.668.722-3.336,1.066-5.021l.017-.086h-.567Z" transform="translate(-12.11 -20.57)"/>
</svg>
